<?xml version="1.0" standalone="no"?>
<!DOCTYPE svg PUBLIC "-//W3C//DTD SVG 20010904//EN"
 "http://www.w3.org/TR/2001/REC-SVG-20010904/DTD/svg10.dtd">
<svg version="1.0" xmlns="http://www.w3.org/2000/svg"
 width="512.000000pt" height="512.000000pt" viewBox="0 0 512.000000 512.000000"
 preserveAspectRatio="xMidYMid meet">

<g transform="translate(0.000000,512.000000) scale(0.100000,-0.100000)"
fill="#000000" stroke="none">
<path d="M792 5105 c-59 -18 -106 -57 -139 -113 -27 -45 -28 -52 -31 -214 l-4
-168 1368 0 1367 0 43 -25 c45 -27 84 -90 84 -138 l0 -26 358 -3 c336 -3 359
-4 391 -23 19 -11 43 -33 55 -48 l21 -28 5 -1810 5 -1809 91 92 c323 330 568
804 663 1283 60 302 58 682 -5 995 -77 382 -262 778 -507 1085 l-56 69 -3 361
-3 360 -28 48 c-35 60 -93 102 -158 116 -35 8 -579 11 -1762 10 -1399 0 -1720
-3 -1755 -14z"/>
<path d="M2237 3793 c-4 -3 -7 -42 -7 -85 l0 -78 445 0 445 0 0 85 0 85 -438
0 c-241 0 -442 -3 -445 -7z"/>
<path d="M2232 3308 l3 -83 443 -3 442 -2 0 85 0 85 -445 0 -446 0 3 -82z"/>
<path d="M947 3066 c-73 -30 -172 -95 -217 -142 l-35 -36 56 -51 c260 -241
679 -243 931 -6 l63 59 -58 54 c-58 54 -141 104 -218 131 -40 15 -44 14 -98
-12 -49 -25 -68 -28 -151 -28 -83 0 -102 3 -151 28 -31 15 -58 27 -60 27 -2 0
-30 -11 -62 -24z"/>
<path d="M2237 2983 c-4 -3 -7 -42 -7 -85 l0 -78 445 0 445 0 0 85 0 85 -438
0 c-241 0 -442 -3 -445 -7z"/>
<path d="M430 2165 l0 -85 1345 0 1345 0 0 85 0 85 -1345 0 -1345 0 0 -85z"/>
<path d="M430 1785 l0 -85 1135 0 1135 0 0 85 0 85 -1135 0 -1135 0 0 -85z"/>
</g>
</svg>
